<svg width="2890" height="666" viewBox="0 0 2890 666" fill="none" xmlns="http://www.w3.org/2000/svg">
<path d="M805 1.00488C872.446 106.345 910.121 150.645 977 188.505C1072.46 219.53 1096.73 238.398 1131 272.505C1193.94 358.862 1229.44 388.724 1293 417.005C1357.42 444.632 1393.82 457.343 1461 458.005V614.005L805 544.005V1.00488Z" fill="#6E38A4"/>
<path d="M2085 1.00488C2017.55 106.345 1979.88 150.645 1913 188.505C1817.54 219.53 1793.27 238.398 1759 272.505C1696.06 358.862 1660.56 388.724 1597 417.005C1532.58 444.632 1496.18 457.343 1429 458.005V596.005L2085 544.005V1.00488Z" fill="#6E38A4"/>
<path d="M805 122.006C872.446 227.346 910.121 271.646 977 309.506C1072.46 340.531 1096.73 359.399 1131 393.506C1193.94 479.863 1229.44 509.725 1293 538.006C1357.42 565.633 1393.82 578.344 1461 579.006V665.006H805V122.006Z" fill="#1A1A1A"/>
<path d="M2085 122.006C2017.55 227.346 1979.88 271.646 1913 309.506C1817.54 340.531 1793.27 359.399 1759 393.506C1696.06 479.863 1660.56 509.725 1597 538.006C1532.58 565.633 1496.18 578.344 1429 579.006V665.006H2085V122.006Z" fill="#1A1A1A"/>
<path fill-rule="evenodd" clip-rule="evenodd" d="M1913 442.692C1979.88 404.832 2017.55 360.532 2085 255.192V665.189H1610C1665.68 638.437 1700.48 606.982 1759 526.692C1793.27 492.586 1817.54 473.718 1913 442.692Z" fill="#6E38A4"/>
<path fill-rule="evenodd" clip-rule="evenodd" d="M977 442.692C910.121 404.832 872.446 360.532 805 255.192V665.189H1280C1224.32 638.437 1189.52 606.982 1131 526.692C1096.73 492.586 1072.46 473.718 977 442.692Z" fill="#6E38A4"/>
<path d="M2198.5 1.5047L2085 1.00488L2080 161.005L2198.5 1.5047Z" fill="#6E38A4"/>
<path d="M2081 128.505L2069 193.505L2084.5 257.511L2874 561.51L2882 1.2002C2680.88 98.4412 2829.67 1.51299 2579.5 1.50493C2423.5 1.4999 2356.19 1.50484 2198.2 1.50484C2163.09 26.7229 2126.34 68.4453 2081 128.505Z" fill="#1A1A1A"/>
<path d="M2083.74 257.001L2085 665.001L2888.24 663.001V0.00109119C2590.91 1.07564 2775 0.00025177 2541.5 1.8359e-07C2307.5 88.5 2207.89 92.54 2083.74 257.001Z" fill="#6E38A4"/>
<path d="M2083.74 257.001L2085 665.001L2888.24 663.001V0.00109119C2590.91 1.07564 2775 0.00025177 2541.5 1.8359e-07C2307.5 88.5 2207.89 92.54 2083.74 257.001Z" fill="#6E38A4"/>
<path d="M691.5 1.50958L805 1.00977L810 161.01L691.5 1.50958Z" fill="#6E38A4"/>
<path d="M808.997 128.51L820.997 193.51L805.499 257.516L15.9984 561.515L7.99841 1.20508C209.118 98.4461 60.3237 1.51787 310.5 1.50981C466.501 1.50478 533.803 1.50973 691.802 1.50973C726.902 26.7278 763.659 68.4502 808.997 128.51Z" fill="#1A1A1A"/>
<path d="M806.26 257.006L805 665.006L1.75977 663.006V0.005974C299.082 1.08053 115 0.00513458 348.5 0.004883C582.5 88.5049 682.11 92.5449 806.26 257.006Z" fill="#6E38A4"/>
<path d="M806.26 257.006L805 665.006L1.75977 663.006V0.005974C299.082 1.08053 115 0.00513458 348.5 0.004883C582.5 88.5049 682.11 92.5449 806.26 257.006Z" fill="#6E38A4"/>
</svg>
