<svg width="83" height="64" viewBox="0 0 83 64" fill="none" xmlns="http://www.w3.org/2000/svg">
<path fill-rule="evenodd" clip-rule="evenodd" d="M0 62.4706C0 63.0229 0.447715 63.4706 1 63.4706H78.1177H82C82.5523 63.4706 83 63.0229 83 62.4706V58.5882V1C83 0.447715 82.5523 0 82 0H0.999999C0.447715 0 0 0.447715 0 1V62.4706ZM5.22718 6.81212C5.00816 6.62219 4.88235 6.34655 4.88235 6.05663V5.8823C4.88235 5.33002 5.33006 4.8823 5.88235 4.8823H77.1177C77.67 4.8823 78.1177 5.33002 78.1177 5.8823V6.05659C78.1177 6.3465 77.9919 6.62214 77.7729 6.81208L42.1552 37.6997C41.7792 38.0257 41.2208 38.0257 40.8448 37.6997L5.22718 6.81212ZM76.4625 14.4127C77.1101 13.8511 78.1177 14.3111 78.1177 15.1682V51.2166C78.1177 52.1618 76.9274 52.5794 76.3369 51.8413L63.5624 35.8742C63.2177 35.4433 62.5891 35.3731 62.1578 35.7173L59.9031 37.5165C59.471 37.8612 59.4006 38.4911 59.7459 38.9228L74.1768 56.9636C74.7005 57.6184 74.2344 58.5882 73.3959 58.5882H9.60416C8.76568 58.5882 8.2995 57.6184 8.82325 56.9636L23.2542 38.9228C23.5995 38.4911 23.5291 37.8612 23.097 37.5165L20.8422 35.7173C20.4109 35.3731 19.7824 35.4433 19.4377 35.8742L6.66319 51.8413C6.07267 52.5794 4.88235 52.1618 4.88235 51.2166V15.1682C4.88235 14.3111 5.89 13.8511 6.53751 14.4127L40.8448 44.164C41.2208 44.49 41.7792 44.49 42.1552 44.164L76.4625 14.4127Z" fill="#6E38A4"/>
</svg>
