<svg width="1281" height="701" viewBox="0 0 1281 701" fill="none" xmlns="http://www.w3.org/2000/svg">
<path d="M0 0C67.4465 105.34 105.121 149.64 172 187.5C267.463 218.525 291.731 237.394 326 271.5C388.94 357.857 424.444 387.719 488 416C552.425 443.627 588.823 456.338 656 457V613L0 543V0Z" fill="#6E38A4"/>
<path d="M1280 0C1212.55 105.34 1174.88 149.64 1108 187.5C1012.54 218.525 988.269 237.394 954 271.5C891.06 357.857 855.556 387.719 792 416C727.575 443.627 691.177 456.338 624 457V595L1280 543V0Z" fill="#6E38A4"/>
<path d="M0 127.743C67.4465 233.082 105.121 277.383 172 315.243C267.463 346.268 291.731 365.136 326 399.243C388.94 485.599 424.444 515.462 488 543.743C552.425 571.37 588.823 584.08 656 584.743V670.743H0V127.743Z" fill="#1A1A1A"/>
<path d="M1280 127.743C1212.55 233.082 1174.88 277.383 1108 315.243C1012.54 346.268 988.269 365.136 954 399.243C891.06 485.599 855.556 515.462 792 543.743C727.575 571.37 691.177 584.08 624 584.743V670.743H1280V127.743Z" fill="#1A1A1A"/>
<path fill-rule="evenodd" clip-rule="evenodd" d="M1108 448.429C1174.88 410.569 1212.55 366.269 1280 260.929V670.926H805C860.681 644.173 895.483 612.719 954 532.429C988.269 498.323 1012.54 479.455 1108 448.429Z" fill="#6E38A4"/>
<path fill-rule="evenodd" clip-rule="evenodd" d="M172 448.429C105.121 410.569 67.4465 366.269 0 260.929V670.926H475C419.319 644.173 384.517 612.719 326 532.429C291.731 498.323 267.463 479.455 172 448.429Z" fill="#6E38A4"/>
</svg>
