<svg width="1280" height="795" viewBox="0 0 1280 795" fill="none" xmlns="http://www.w3.org/2000/svg">
<path d="M0 0C67.4465 105.34 105.121 149.64 172 187.5C267.463 218.525 291.731 237.394 326 271.5C388.94 357.857 424.444 387.719 488 416C552.425 443.627 588.823 456.338 656 457V613L0 543V0Z" fill="#6E38A4"/>
<path d="M1280 0C1212.55 105.34 1174.88 149.64 1108 187.5C1012.54 218.525 988.269 237.394 954 271.5C891.06 357.857 855.556 387.719 792 416C727.575 443.627 691.177 456.338 624 457V595L1280 543V0Z" fill="#6E38A4"/>
<path d="M0 118.813C67.4465 224.153 105.121 268.453 172 306.313C267.463 337.339 291.731 356.207 326 390.313C388.94 476.67 424.444 506.533 488 534.813C552.425 562.441 588.823 575.151 656 575.813V661.813H0V118.813Z" fill="#1A1A1A"/>
<path d="M1280 118.813C1212.55 224.153 1174.88 268.453 1108 306.313C1012.54 337.339 988.269 356.207 954 390.313C891.06 476.67 855.556 506.533 792 534.813C727.575 562.441 691.177 575.151 624 575.813V661.813H1280V118.813Z" fill="#1A1A1A"/>
<path d="M0 251.813C67.4465 357.153 105.121 401.453 172 439.313C267.463 470.339 291.731 489.207 326 523.313C388.94 609.67 424.444 639.533 488 667.813C552.425 695.441 588.823 708.151 656 708.813V794.813H0V251.813Z" fill="#6E38A4"/>
<path d="M1280 251.813C1212.55 357.153 1174.88 401.453 1108 439.313C1012.54 470.339 988.269 489.207 954 523.313C891.06 609.67 855.556 639.533 792 667.813C727.575 695.441 691.177 708.151 624 708.813V794.813H1280V251.813Z" fill="#6E38A4"/>
</svg>
