<svg width="83" height="65" viewBox="0 0 83 65" fill="none" xmlns="http://www.w3.org/2000/svg">
<path fill-rule="evenodd" clip-rule="evenodd" d="M0 63.1764C0 63.7287 0.447715 64.1765 1 64.1765H78.1177H82C82.5523 64.1765 83 63.7287 83 63.1765V59.2941V1.70587C83 1.15359 82.5523 0.705872 82 0.705872H0.999999C0.447715 0.705872 0 1.15359 0 1.70587V63.1764ZM5.22718 7.518C5.00816 7.32806 4.88235 7.05242 4.88235 6.76251V6.58817C4.88235 6.03589 5.33006 5.58817 5.88235 5.58817H77.1177C77.67 5.58817 78.1177 6.03589 78.1177 6.58817V6.76246C78.1177 7.05237 77.9919 7.32801 77.7729 7.51795L42.1552 38.4056C41.7792 38.7316 41.2208 38.7316 40.8448 38.4056L5.22718 7.518ZM76.4625 15.1185C77.1101 14.557 78.1177 15.017 78.1177 15.874V51.9224C78.1177 52.8677 76.9274 53.2853 76.3369 52.5471L63.5624 36.5801C63.2177 36.1492 62.5891 36.079 62.1578 36.4231L59.9031 38.2223C59.471 38.5671 59.4006 39.197 59.7459 39.6286L74.1768 57.6695C74.7005 58.3242 74.2344 59.2941 73.3959 59.2941H9.60416C8.76568 59.2941 8.2995 58.3242 8.82325 57.6695L23.2542 39.6286C23.5995 39.197 23.5291 38.5671 23.097 38.2223L20.8422 36.4231C20.4109 36.079 19.7824 36.1492 19.4377 36.5801L6.66319 52.5472C6.07267 53.2853 4.88235 52.8677 4.88235 51.9224V15.874C4.88235 15.017 5.89 14.557 6.53751 15.1185L40.8448 44.8699C41.2208 45.1959 41.7792 45.1959 42.1552 44.8699L76.4625 15.1185Z" fill="#6E38A4"/>
</svg>
