<svg width="416" height="295" viewBox="0 0 416 295" fill="none" xmlns="http://www.w3.org/2000/svg">
<path d="M52.8014 268.568C54.2734 268.888 55.5854 269.304 56.7374 269.816C57.8894 270.328 59.0094 270.84 60.0974 271.352V275H30.5294V271.352C31.9374 270.584 33.2814 270.008 34.5614 269.624C35.8414 269.176 37.1214 268.824 38.4014 268.568V214.232C35.2014 213.528 32.5774 212.6 30.5294 211.448V207.8H40.7054C41.9854 207.8 43.4254 207.768 45.0254 207.704C46.6894 207.64 48.4174 207.576 50.2094 207.512C52.0014 207.384 53.8254 207.288 55.6814 207.224C57.5374 207.096 59.3294 207.032 61.0574 207.032C64.5774 207.032 67.8094 207.448 70.7534 208.28C73.7614 209.048 76.3214 210.232 78.4334 211.832C80.6094 213.432 82.2734 215.448 83.4254 217.88C84.6414 220.248 85.2494 223.032 85.2494 226.232C85.2494 230.84 84.1294 234.616 81.8894 237.56C79.6494 240.504 76.5774 242.712 72.6734 244.184C75.2334 248.216 77.9534 252.344 80.8334 256.568C83.7134 260.728 86.7534 264.76 89.9534 268.664L94.5614 271.736V275H78.5294L74.4014 271.832C71.4574 268.312 68.8334 264.248 66.5294 259.64C64.2894 254.968 62.3054 250.392 60.5774 245.912H52.8014V268.568ZM57.6014 213.272C55.6174 213.272 54.0174 213.464 52.8014 213.848V240.632H58.4654C61.7294 240.632 64.5134 239.48 66.8174 237.176C69.1214 234.808 70.2734 231.32 70.2734 226.712C70.2734 224.344 69.9534 222.328 69.3134 220.664C68.6734 218.936 67.7774 217.528 66.6254 216.44C65.4734 215.352 64.1294 214.552 62.5934 214.04C61.0574 213.528 59.3934 213.272 57.6014 213.272ZM142.203 266.936C141.691 268.024 140.859 269.144 139.707 270.296C138.619 271.384 137.243 272.376 135.579 273.272C133.979 274.104 132.091 274.776 129.915 275.288C127.803 275.864 125.499 276.152 123.003 276.152C119.035 276.152 115.515 275.576 112.443 274.424C109.371 273.208 106.811 271.512 104.763 269.336C102.715 267.096 101.147 264.44 100.059 261.368C99.0349 258.296 98.5229 254.84 98.5229 251C98.5229 242.808 100.667 236.568 104.955 232.28C109.243 227.992 115.195 225.848 122.811 225.848C126.075 225.848 129.115 226.296 131.931 227.192C134.811 228.088 137.179 229.56 139.035 231.608C140.955 233.656 142.267 236.344 142.971 239.672C143.739 243 143.707 247.064 142.875 251.864H113.403C113.467 256.92 114.747 260.952 117.243 263.96C119.803 266.968 123.547 268.472 128.475 268.472C130.587 268.472 132.763 268.152 135.003 267.512C137.307 266.872 139.099 266.04 140.379 265.016L142.203 266.936ZM122.427 231.32C121.147 231.32 119.995 231.544 118.971 231.992C118.011 232.44 117.147 233.272 116.379 234.488C115.675 235.64 115.099 237.24 114.651 239.288C114.203 241.272 113.883 243.8 113.691 246.872H129.147C129.595 241.88 129.307 238.04 128.283 235.352C127.259 232.664 125.307 231.32 122.427 231.32ZM175.621 294.2H149.125V290.456C151.301 289.432 153.413 288.664 155.461 288.152V233.816L149.125 233.048V229.304C150.149 228.856 151.397 228.44 152.869 228.056C154.405 227.672 155.973 227.352 157.573 227.096C159.173 226.776 160.709 226.52 162.181 226.328C163.717 226.136 164.997 225.976 166.021 225.848H169.285V236.6H169.381C170.469 233.528 172.165 230.968 174.469 228.92C176.837 226.872 180.101 225.848 184.261 225.848C187.077 225.848 189.605 226.328 191.845 227.288C194.149 228.184 196.069 229.624 197.605 231.608C199.205 233.528 200.421 236.024 201.253 239.096C202.149 242.104 202.597 245.72 202.597 249.944C202.597 253.976 202.021 257.624 200.869 260.888C199.781 264.152 198.181 266.904 196.069 269.144C194.021 271.384 191.493 273.112 188.485 274.328C185.541 275.544 182.181 276.152 178.405 276.152C176.229 276.152 174.501 275.992 173.221 275.672C172.005 275.416 170.693 274.936 169.285 274.232V288.152C170.309 288.28 171.333 288.504 172.357 288.824C173.381 289.208 174.469 289.752 175.621 290.456V294.2ZM178.693 233.528C176.517 233.528 174.565 234.296 172.837 235.832C171.173 237.368 169.989 239.736 169.285 242.936V268.472C170.309 269.24 171.397 269.816 172.549 270.2C173.701 270.52 175.205 270.68 177.061 270.68C180.709 270.68 183.397 268.92 185.125 265.4C186.853 261.88 187.717 256.728 187.717 249.944C187.717 244.696 187.045 240.664 185.701 237.848C184.421 234.968 182.085 233.528 178.693 233.528ZM252.265 266.936C251.753 268.024 250.921 269.144 249.769 270.296C248.681 271.384 247.305 272.376 245.641 273.272C244.041 274.104 242.153 274.776 239.977 275.288C237.865 275.864 235.561 276.152 233.065 276.152C229.097 276.152 225.577 275.576 222.505 274.424C219.433 273.208 216.873 271.512 214.825 269.336C212.777 267.096 211.209 264.44 210.121 261.368C209.097 258.296 208.585 254.84 208.585 251C208.585 242.808 210.729 236.568 215.017 232.28C219.305 227.992 225.257 225.848 232.873 225.848C236.137 225.848 239.177 226.296 241.993 227.192C244.873 228.088 247.241 229.56 249.097 231.608C251.017 233.656 252.329 236.344 253.033 239.672C253.801 243 253.769 247.064 252.937 251.864H223.465C223.529 256.92 224.809 260.952 227.305 263.96C229.865 266.968 233.609 268.472 238.537 268.472C240.649 268.472 242.825 268.152 245.065 267.512C247.369 266.872 249.161 266.04 250.441 265.016L252.265 266.936ZM232.489 231.32C231.209 231.32 230.057 231.544 229.033 231.992C228.073 232.44 227.209 233.272 226.441 234.488C225.737 235.64 225.161 237.24 224.713 239.288C224.265 241.272 223.945 243.8 223.753 246.872H239.209C239.657 241.88 239.369 238.04 238.345 235.352C237.321 232.664 235.369 231.32 232.489 231.32ZM285.012 238.04C284.244 238.424 283.348 239.064 282.324 239.96C281.3 240.856 280.372 242.328 279.54 244.376V268.952C280.82 269.08 282.1 269.336 283.38 269.72C284.66 270.04 285.94 270.552 287.22 271.256V275H259.38V271.256C260.532 270.616 261.62 270.136 262.644 269.816C263.668 269.496 264.692 269.208 265.716 268.952V233.816L259.38 233.048V229.304C260.404 228.856 261.652 228.44 263.124 228.056C264.66 227.672 266.228 227.352 267.828 227.096C269.428 226.776 270.964 226.52 272.436 226.328C273.972 226.136 275.252 225.976 276.276 225.848H279.54V238.616H279.924C280.436 237.208 281.172 235.736 282.132 234.2C283.156 232.664 284.34 231.256 285.684 229.976C287.028 228.696 288.5 227.672 290.1 226.904C291.7 226.136 293.364 225.784 295.092 225.848C295.796 226.744 296.404 228.024 296.916 229.688C297.428 231.288 297.844 232.824 298.164 234.296V238.04H285.012Z" fill="#1A1A1A"/>
<path d="M327.988 275H301.492V271.256C302.452 270.744 303.444 270.328 304.468 270.008C305.492 269.624 306.612 269.272 307.828 268.952V233.816L301.492 233.048V229.304C302.452 228.92 303.636 228.536 305.044 228.152C306.516 227.768 308.052 227.448 309.652 227.192C311.252 226.872 312.82 226.616 314.356 226.424C315.892 226.168 317.236 225.976 318.388 225.848H321.652V268.952C322.932 269.272 324.084 269.624 325.108 270.008C326.132 270.328 327.092 270.744 327.988 271.256V275ZM306.196 211.256C306.196 209.016 306.964 207.256 308.5 205.976C310.036 204.696 312.02 204.056 314.452 204.056C316.884 204.056 318.868 204.696 320.404 205.976C321.94 207.256 322.708 209.016 322.708 211.256C322.708 213.432 321.94 215.16 320.404 216.44C318.868 217.72 316.884 218.36 314.452 218.36C312.02 218.36 310.036 217.72 308.5 216.44C306.964 215.16 306.196 213.432 306.196 211.256ZM333.367 251C333.367 247.096 333.943 243.608 335.095 240.536C336.311 237.4 338.007 234.744 340.183 232.568C342.423 230.392 345.111 228.728 348.247 227.576C351.383 226.424 354.935 225.848 358.903 225.848C363.383 225.848 367.223 226.488 370.423 227.768C373.687 228.984 376.343 230.712 378.391 232.952C380.503 235.128 382.039 237.784 382.999 240.92C383.959 243.992 384.439 247.352 384.439 251C384.439 254.904 383.863 258.424 382.711 261.56C381.559 264.632 379.863 267.256 377.623 269.432C375.447 271.608 372.759 273.272 369.559 274.424C366.423 275.576 362.871 276.152 358.903 276.152C354.551 276.152 350.775 275.544 347.575 274.328C344.375 273.048 341.719 271.32 339.607 269.144C337.495 266.904 335.927 264.248 334.903 261.176C333.879 258.04 333.367 254.648 333.367 251ZM348.247 251C348.247 253.88 348.407 256.536 348.727 258.968C349.111 261.336 349.751 263.352 350.647 265.016C351.543 266.68 352.759 267.992 354.295 268.952C355.831 269.848 357.815 270.296 360.247 270.296C361.655 270.296 362.935 269.976 364.087 269.336C365.239 268.632 366.231 267.544 367.063 266.072C367.895 264.536 368.503 262.552 368.887 260.12C369.335 257.624 369.559 254.584 369.559 251C369.559 248.056 369.367 245.4 368.983 243.032C368.663 240.664 368.055 238.648 367.159 236.984C366.327 235.32 365.175 234.04 363.703 233.144C362.231 232.184 360.375 231.704 358.135 231.704C356.471 231.704 355.031 232.056 353.815 232.76C352.599 233.4 351.575 234.488 350.743 236.024C349.911 237.496 349.271 239.48 348.823 241.976C348.439 244.408 348.247 247.416 348.247 251Z" fill="#6E38A4"/>
<path d="M58 160.058H88C96.2969 160.058 103 152.905 103 144.052V32.1116H58V160.058Z" fill="#1A1A1A"/>
<path fill-rule="evenodd" clip-rule="evenodd" d="M261.766 0H221.5C217.75 0 214.141 1.50054 211.375 4.20152L165.297 49.2178C165.273 49.2428 165.25 49.2804 165.227 49.3179C165.203 49.3554 165.18 49.3929 165.156 49.4179C157.375 57.2207 157.516 69.6753 164.172 77.4281C170.125 84.3806 182.641 86.2312 190.469 78.7785C190.492 78.7535 190.527 78.741 190.562 78.7285C190.598 78.716 190.633 78.7035 190.656 78.6785L228.109 42.0652C231.156 39.1142 235.938 39.3143 238.703 42.5654C241.516 45.8166 241.281 50.8684 238.234 53.8695L226 65.8239L294.25 124.945C295.609 126.146 296.828 127.446 297.953 128.797V32.0116L272.359 4.7017C269.594 1.70062 265.75 0 261.766 0ZM313 32.1116V144.102C313 152.955 319.703 160.108 328 160.108H358V32.1116H313Z" fill="#6E38A4"/>
<path d="M284.828 140.9L214.844 80.2778L200.781 94.0328C186.859 107.588 165.531 106.287 153.109 91.832C140.5 77.1267 141.484 54.3684 155.172 40.9636L193.516 3.5H154.234C150.25 3.5 146.453 5.20062 143.641 8.2017L118 35.5116V147.502H126.578L161.5 183.715C174.344 194.869 195 194 211.188 183.815L211.281 183.715L220.5 188.5C229.828 193.032 242.453 191.668 248.5 183.715L253.5 177C255.819 174.806 257.5 173.5 261.5 173.5C265.5 173.5 277.328 176.213 282.531 169.31L288 164C293.25 157.098 291.25 146.502 284.828 140.9Z" fill="#1A1A1A"/>
</svg>
