<svg width="244" height="173" viewBox="0 0 244 173" fill="none" xmlns="http://www.w3.org/2000/svg">
<path d="M30.9696 157.499C31.833 157.687 32.6026 157.931 33.2783 158.231C33.9539 158.531 34.6109 158.832 35.249 159.132V161.271H17.9062V159.132C18.7321 158.681 19.5204 158.344 20.2712 158.118C21.0219 157.856 21.7727 157.649 22.5235 157.499V125.634C20.6466 125.222 19.1075 124.677 17.9062 124.002V121.862H23.8749C24.6256 121.862 25.4702 121.844 26.4087 121.806C27.3847 121.769 28.3983 121.731 29.4493 121.693C30.5004 121.618 31.5703 121.562 32.6589 121.525C33.7475 121.45 34.7986 121.412 35.8121 121.412C37.8767 121.412 39.7724 121.656 41.4992 122.144C43.2635 122.594 44.765 123.289 46.0038 124.227C47.2801 125.165 48.2561 126.347 48.9318 127.774C49.645 129.162 50.0016 130.795 50.0016 132.672C50.0016 135.374 49.3447 137.588 48.0309 139.315C46.717 141.041 44.9152 142.336 42.6253 143.199C44.1269 145.564 45.7222 147.985 47.4115 150.462C49.1007 152.902 50.8838 155.266 52.7607 157.556L55.4635 159.357V161.271H46.0601L43.6389 159.413C41.9121 157.349 40.373 154.966 39.0216 152.263C37.7078 149.524 36.5441 146.84 35.5306 144.213H30.9696V157.499ZM33.785 125.071C32.6213 125.071 31.6829 125.184 30.9696 125.409V141.116H34.2918C36.2063 141.116 37.8392 140.441 39.1906 139.09C40.5419 137.701 41.2176 135.655 41.2176 132.953C41.2176 131.564 41.0299 130.382 40.6546 129.406C40.2792 128.393 39.7536 127.567 39.0779 126.929C38.4022 126.291 37.6139 125.822 36.713 125.522C35.8121 125.222 34.8361 125.071 33.785 125.071ZM83.4071 156.542C83.1068 157.18 82.6188 157.837 81.9431 158.513C81.305 159.151 80.4979 159.732 79.5219 160.258C78.5834 160.746 77.476 161.14 76.1997 161.44C74.961 161.778 73.6096 161.947 72.1456 161.947C69.8182 161.947 67.7536 161.609 65.9517 160.933C64.1499 160.22 62.6483 159.226 61.4471 157.95C60.2459 156.636 59.3262 155.078 58.688 153.277C58.0874 151.475 57.7871 149.449 57.7871 147.197C57.7871 142.392 59.0447 138.733 61.5597 136.218C64.0748 133.704 67.5659 132.446 72.033 132.446C73.9474 132.446 75.7305 132.709 77.3822 133.235C79.0714 133.76 80.4603 134.623 81.549 135.824C82.6751 137.025 83.4446 138.602 83.8576 140.553C84.308 142.505 84.2893 144.888 83.8013 147.703H66.5148C66.5523 150.668 67.3031 153.033 68.7671 154.797C70.2687 156.561 72.4647 157.443 75.3551 157.443C76.5939 157.443 77.8702 157.255 79.184 156.88C80.5354 156.505 81.5865 156.017 82.3373 155.416L83.4071 156.542ZM71.8077 135.655C71.057 135.655 70.3813 135.787 69.7807 136.05C69.2176 136.312 68.7108 136.8 68.2603 137.513C67.8474 138.189 67.5096 139.127 67.2468 140.328C66.984 141.492 66.7963 142.974 66.6837 144.776H75.7493C76.012 141.848 75.8431 139.596 75.2425 138.02C74.6419 136.444 73.497 135.655 71.8077 135.655ZM103.008 172.531H87.4671V170.335C88.7434 169.735 89.9822 169.284 91.1834 168.984V137.119L87.4671 136.669V134.473C88.0677 134.21 88.7998 133.967 89.6631 133.741C90.5641 133.516 91.4837 133.328 92.4222 133.178C93.3607 132.991 94.2616 132.841 95.125 132.728C96.0259 132.615 96.7767 132.522 97.3773 132.446H99.2917V138.752H99.3481C99.9862 136.95 100.981 135.449 102.332 134.248C103.721 133.047 105.636 132.446 108.076 132.446C109.727 132.446 111.21 132.728 112.524 133.291C113.875 133.816 115.002 134.661 115.903 135.824C116.841 136.95 117.554 138.414 118.042 140.216C118.568 141.98 118.831 144.1 118.831 146.577C118.831 148.942 118.493 151.081 117.817 152.995C117.179 154.909 116.24 156.523 115.002 157.837C113.8 159.151 112.318 160.164 110.553 160.877C108.827 161.59 106.856 161.947 104.641 161.947C103.365 161.947 102.351 161.853 101.6 161.665C100.887 161.515 100.118 161.234 99.2917 160.821V168.984C99.8924 169.059 100.493 169.19 101.094 169.378C101.694 169.603 102.332 169.922 103.008 170.335V172.531ZM104.81 136.95C103.534 136.95 102.389 137.401 101.375 138.301C100.399 139.202 99.7047 140.591 99.2917 142.468V157.443C99.8924 157.893 100.531 158.231 101.206 158.456C101.882 158.644 102.764 158.738 103.853 158.738C105.992 158.738 107.569 157.706 108.583 155.641C109.596 153.577 110.103 150.556 110.103 146.577C110.103 143.5 109.709 141.135 108.92 139.484C108.17 137.795 106.799 136.95 104.81 136.95ZM147.963 156.542C147.662 157.18 147.174 157.837 146.499 158.513C145.861 159.151 145.053 159.732 144.077 160.258C143.139 160.746 142.032 161.14 140.755 161.44C139.517 161.778 138.165 161.947 136.701 161.947C134.374 161.947 132.309 161.609 130.507 160.933C128.705 160.22 127.204 159.226 126.003 157.95C124.801 156.636 123.882 155.078 123.244 153.277C122.643 151.475 122.343 149.449 122.343 147.197C122.343 142.392 123.6 138.733 126.115 136.218C128.63 133.704 132.121 132.446 136.589 132.446C138.503 132.446 140.286 132.709 141.938 133.235C143.627 133.76 145.016 134.623 146.105 135.824C147.231 137.025 148 138.602 148.413 140.553C148.864 142.505 148.845 144.888 148.357 147.703H131.07C131.108 150.668 131.859 153.033 133.323 154.797C134.824 156.561 137.02 157.443 139.911 157.443C141.149 157.443 142.426 157.255 143.74 156.88C145.091 156.505 146.142 156.017 146.893 155.416L147.963 156.542ZM136.363 135.655C135.613 135.655 134.937 135.787 134.336 136.05C133.773 136.312 133.266 136.8 132.816 137.513C132.403 138.189 132.065 139.127 131.802 140.328C131.54 141.492 131.352 142.974 131.239 144.776H140.305C140.568 141.848 140.399 139.596 139.798 138.02C139.197 136.444 138.053 135.655 136.363 135.655ZM167.17 139.596C166.72 139.822 166.194 140.197 165.593 140.722C164.993 141.248 164.449 142.111 163.961 143.312V157.724C164.711 157.799 165.462 157.95 166.213 158.175C166.964 158.362 167.714 158.663 168.465 159.076V161.271H152.136V159.076C152.812 158.7 153.45 158.419 154.05 158.231C154.651 158.043 155.252 157.875 155.852 157.724V137.119L152.136 136.669V134.473C152.737 134.21 153.469 133.967 154.332 133.741C155.233 133.516 156.153 133.328 157.091 133.178C158.029 132.991 158.93 132.841 159.794 132.728C160.695 132.615 161.445 132.522 162.046 132.446H163.961V139.934H164.186C164.486 139.108 164.918 138.245 165.481 137.344C166.081 136.444 166.776 135.618 167.564 134.867C168.353 134.117 169.216 133.516 170.154 133.066C171.093 132.615 172.069 132.409 173.082 132.446C173.495 132.972 173.852 133.723 174.152 134.698C174.453 135.637 174.697 136.537 174.884 137.401V139.596H167.17Z" fill="#6E38A4"/>
<path d="M192.378 161.271H176.837V159.076C177.4 158.775 177.982 158.531 178.582 158.344C179.183 158.118 179.84 157.912 180.553 157.724V137.119L176.837 136.669V134.473C177.4 134.248 178.094 134.023 178.92 133.798C179.784 133.572 180.685 133.385 181.623 133.235C182.562 133.047 183.481 132.897 184.382 132.784C185.283 132.634 186.071 132.522 186.747 132.446H188.662V157.724C189.412 157.912 190.088 158.118 190.689 158.344C191.289 158.531 191.852 158.775 192.378 159.076V161.271ZM179.596 123.889C179.596 122.575 180.046 121.543 180.947 120.793C181.848 120.042 183.012 119.667 184.438 119.667C185.865 119.667 187.029 120.042 187.93 120.793C188.83 121.543 189.281 122.575 189.281 123.889C189.281 125.165 188.83 126.179 187.93 126.929C187.029 127.68 185.865 128.055 184.438 128.055C183.012 128.055 181.848 127.68 180.947 126.929C180.046 126.179 179.596 125.165 179.596 123.889ZM195.533 147.197C195.533 144.907 195.871 142.862 196.546 141.06C197.26 139.221 198.254 137.663 199.531 136.387C200.845 135.111 202.421 134.135 204.261 133.46C206.1 132.784 208.183 132.446 210.511 132.446C213.138 132.446 215.391 132.822 217.268 133.572C219.182 134.286 220.74 135.299 221.941 136.613C223.18 137.889 224.081 139.446 224.644 141.285C225.207 143.087 225.489 145.057 225.489 147.197C225.489 149.486 225.151 151.55 224.475 153.389C223.799 155.191 222.805 156.73 221.491 158.006C220.214 159.282 218.638 160.258 216.761 160.933C214.921 161.609 212.838 161.947 210.511 161.947C207.958 161.947 205.743 161.59 203.866 160.877C201.989 160.126 200.432 159.113 199.193 157.837C197.954 156.523 197.034 154.966 196.434 153.164C195.833 151.325 195.533 149.336 195.533 147.197ZM204.261 147.197C204.261 148.886 204.354 150.443 204.542 151.869C204.767 153.258 205.143 154.44 205.668 155.416C206.194 156.392 206.907 157.161 207.808 157.724C208.709 158.25 209.873 158.513 211.299 158.513C212.125 158.513 212.876 158.325 213.551 157.95C214.227 157.537 214.809 156.899 215.297 156.035C215.785 155.135 216.141 153.971 216.367 152.545C216.629 151.081 216.761 149.298 216.761 147.197C216.761 145.47 216.648 143.913 216.423 142.524C216.235 141.135 215.879 139.953 215.353 138.977C214.865 138.001 214.189 137.251 213.326 136.725C212.463 136.162 211.374 135.881 210.06 135.881C209.084 135.881 208.24 136.087 207.526 136.5C206.813 136.875 206.213 137.513 205.725 138.414C205.237 139.277 204.861 140.441 204.598 141.905C204.373 143.331 204.261 145.095 204.261 147.197Z" fill="#1A1A1A"/>
<path d="M34.0195 93.8645H51.6157C56.4821 93.8645 60.4138 89.6697 60.4138 84.4779V18.8315H34.0195V93.8645Z" fill="#1A1A1A"/>
<path fill-rule="evenodd" clip-rule="evenodd" d="M153.536 0H129.918C127.718 0 125.602 0.879978 123.979 2.46394L96.9528 28.8633C96.9387 28.878 96.9252 28.9 96.9117 28.922C96.8976 28.944 96.8841 28.966 96.8701 28.9807C92.3062 33.5565 92.3889 40.8604 96.2929 45.407C99.7846 49.4842 107.126 50.5695 111.717 46.1989C111.731 46.1843 111.751 46.1769 111.772 46.1696C111.793 46.1623 111.813 46.1549 111.827 46.1403L133.794 24.6687C135.582 22.9382 138.386 23.0555 140.008 24.9621C141.658 26.8687 141.52 29.8313 139.733 31.5913L132.557 38.6018L172.589 73.2728C173.386 73.9771 174.101 74.7395 174.761 75.5318V18.7729L159.749 2.75727C158.127 0.997313 155.872 0 153.536 0ZM183.586 18.8315V84.5073C183.586 89.699 187.518 93.8938 192.384 93.8938H209.98V18.8315H183.586Z" fill="#6E38A4"/>
<path d="M167.063 82.6294L126.015 47.0781L117.766 55.1446C109.6 63.0939 97.0907 62.331 89.8047 53.854C82.409 45.2302 82.9862 31.8838 91.0147 24.0227L113.505 2.05249H90.4645C88.1278 2.05249 85.9007 3.0498 84.2514 4.80976L69.2119 20.8254V86.5011H74.2432L94.7263 107.738C102.26 114.279 114.375 113.769 123.87 107.797L123.925 107.738L129.332 110.544C134.803 113.202 142.208 112.402 145.755 107.738L148.688 103.8C150.048 102.513 151.034 101.747 153.38 101.747C155.726 101.747 162.664 103.338 165.716 99.2902L168.923 96.1762C172.003 92.128 170.83 85.9147 167.063 82.6294Z" fill="#1A1A1A"/>
</svg>
