<svg width="70" height="77" viewBox="0 0 70 77" fill="none" xmlns="http://www.w3.org/2000/svg">
<path d="M19.6462 11.6657C17.4061 11.9348 15.0641 12.9999 13.2312 14.5861C12.2076 15.4737 11.0072 16.9396 10.273 18.1994C8.64914 20.9767 7.76487 24.1376 7.52907 28.0086C7.12177 34.7141 9.53876 39.4612 15.6965 44.0537C16.8326 44.9012 17.883 45.617 20.1017 47.0486C23.1565 49.0184 24.3355 49.8545 25.9004 51.1544C29.4321 54.0805 32.8459 58.1004 34.1375 60.849C34.2929 61.1812 34.4483 61.5419 34.4858 61.6507L34.5555 61.8511L34.6519 61.5648C35.3969 59.2915 38.9875 54.8822 43.0123 51.2861C44.7754 49.7113 46.3189 48.5603 49.6577 46.3328C53.6396 43.6758 55.2527 42.4217 56.9676 40.6351C59.5615 37.938 60.9173 35.2123 61.4318 31.662C61.5604 30.7744 61.5604 27.8769 61.4318 26.7202C61.1156 23.9143 60.5422 21.7726 59.5186 19.6195C58.7951 18.102 57.9055 16.8079 56.78 15.6397C54.8025 13.5897 52.5356 12.3929 49.7649 11.9348C49.0521 11.8203 46.9352 11.8374 46.201 11.9634C41.9833 12.7136 38.5106 15.3019 35.9596 19.5909C35.6166 20.1635 35.0003 21.3832 34.7323 22.0303L34.5233 22.5228L33.982 21.3718C33.6873 20.7361 33.2478 19.8829 33.0067 19.4706C30.3431 14.9297 26.5488 12.1696 22.2454 11.6599C21.6827 11.5912 20.2196 11.5969 19.6462 11.6657Z" fill="white"/>
</svg>
