<svg width="55" height="51" viewBox="0 0 55 51" fill="none" xmlns="http://www.w3.org/2000/svg">
<path d="M12.6462 0.665592C10.4061 0.934731 8.06409 1.99982 6.23125 3.58602C5.20764 4.47359 4.00718 5.93953 3.27297 7.19933C1.64914 9.97659 0.764871 13.1375 0.529067 17.0085C0.121769 23.714 2.53876 28.4612 8.69648 33.0537C9.83262 33.9012 10.883 34.617 13.1017 36.0485C16.1565 38.0184 17.3355 38.8544 18.9004 40.1543C22.4321 43.0805 25.8459 47.1003 27.1375 49.849C27.2929 50.1811 27.4483 50.5419 27.4858 50.6507L27.5555 50.8511L27.6519 50.5648C28.3969 48.2914 31.9875 43.8821 36.0123 40.286C37.7754 38.7113 39.3189 37.5603 42.6577 35.3327C46.6395 32.6757 48.2527 31.4217 49.9676 29.6351C52.5615 26.938 53.9173 24.2122 54.4318 20.6619C54.5604 19.7743 54.5604 16.8768 54.4318 15.7201C54.1156 12.9142 53.5422 10.7725 52.5186 8.61945C51.7951 7.10198 50.9055 5.80783 49.78 4.63966C47.8025 2.58963 45.5356 1.39283 42.7649 0.934731C42.0521 0.820202 39.9352 0.837379 39.201 0.96336C34.9833 1.71351 31.5106 4.30181 28.9596 8.59082C28.6166 9.16345 28.0003 10.3832 27.7323 11.0302L27.5233 11.5227L26.982 10.3717C26.6873 9.73608 26.2478 8.88286 26.0067 8.47057C23.3431 3.9296 19.5488 1.16951 15.2454 0.659866C14.6827 0.591148 13.2196 0.596874 12.6462 0.665592Z" fill="#6E38A4"/>
</svg>
