<svg width="391" height="391" viewBox="0 0 391 391" fill="none" xmlns="http://www.w3.org/2000/svg">
<circle cx="195.5" cy="195.5" r="195.5" fill="white"/>
<path d="M45 263.058H75C83.2969 263.058 90 255.905 90 247.052V135.112H45V263.058Z" fill="#1A1A1A"/>
<path fill-rule="evenodd" clip-rule="evenodd" d="M248.766 103H208.5C204.75 103 201.141 104.501 198.375 107.202L152.297 152.218C152.273 152.243 152.25 152.28 152.227 152.318C152.203 152.355 152.18 152.393 152.156 152.418C144.375 160.221 144.516 172.675 151.172 180.428C157.125 187.381 169.641 189.231 177.469 181.779C177.492 181.754 177.527 181.741 177.562 181.729C177.598 181.716 177.633 181.704 177.656 181.679L215.109 145.065C218.156 142.114 222.938 142.314 225.703 145.565C228.516 148.817 228.281 153.868 225.234 156.87L213 168.824L281.25 227.945C282.609 229.146 283.828 230.446 284.953 231.797V135.012L259.359 107.702C256.594 104.701 252.75 103 248.766 103ZM300 135.112V247.102C300 255.955 306.703 263.108 315 263.108H345V135.112H300Z" fill="#6E38A4"/>
<path d="M271.828 243.9L201.844 183.278L187.781 197.033C173.859 210.588 152.531 209.287 140.109 194.832C127.5 180.127 128.484 157.368 142.172 143.964L180.516 106.5H141.234C137.25 106.5 133.453 108.201 130.641 111.202L105 138.512V250.502H113.578L148.5 286.715C161.344 297.869 182 297 198.188 286.815L198.281 286.715L207.5 291.5C216.828 296.032 229.453 294.668 235.5 286.715L240.5 280C242.819 277.806 244.5 276.5 248.5 276.5C252.5 276.5 264.328 279.213 269.531 272.31L275 267C280.25 260.098 278.25 249.502 271.828 243.9Z" fill="#1A1A1A"/>
</svg>
