<svg width="88" height="88" viewBox="0 0 88 88" fill="none" xmlns="http://www.w3.org/2000/svg">
<path d="M86 43.1619C86 65.8589 67.2324 84.3238 44 84.3238C20.7676 84.3238 2 65.8589 2 43.1619C2 20.4649 20.7676 2 44 2C67.2324 2 86 20.4649 86 43.1619Z" fill="white" stroke="#6E38A4" stroke-width="4"/>
<path d="M28.6472 22.6656C26.407 22.9347 24.0651 23.9998 22.2322 25.586C21.2086 26.4736 20.0082 27.9395 19.2739 29.1993C17.6501 31.9766 16.7658 35.1375 16.53 39.0085C16.1227 45.714 18.5397 50.4612 24.6975 55.0537C25.8336 55.9012 26.884 56.617 29.1027 58.0485C32.1574 60.0184 33.3365 60.8544 34.9014 62.1543C38.4331 65.0805 41.8469 69.1003 43.1384 71.849C43.2938 72.1811 43.4493 72.5419 43.4868 72.6507L43.5564 72.8511L43.6529 72.5648C44.3978 70.2914 47.9885 65.8821 52.0133 62.286C53.7764 60.7113 55.3199 59.5603 58.6586 57.3327C62.6405 54.6757 64.2536 53.4217 65.9686 51.6351C68.5624 48.938 69.9183 46.2122 70.4328 42.6619C70.5614 41.7743 70.5614 38.8768 70.4328 37.7201C70.1166 34.9142 69.5432 32.7725 68.5196 30.6195C67.7961 29.102 66.9064 27.8078 65.781 26.6397C63.8035 24.5896 61.5365 23.3928 58.7658 22.9347C58.0531 22.8202 55.9362 22.8374 55.202 22.9634C50.9843 23.7135 47.5115 26.3018 44.9606 30.5908C44.6176 31.1635 44.0013 32.3832 43.7333 33.0302L43.5243 33.5227L42.983 32.3717C42.6883 31.7361 42.2488 30.8829 42.0076 30.4706C39.3441 25.9296 35.5498 23.1695 31.2464 22.6599C30.6837 22.5911 29.2206 22.5969 28.6472 22.6656Z" fill="#6E38A4"/>
</svg>
