<svg width="88" height="88" viewBox="0 0 88 88" fill="none" xmlns="http://www.w3.org/2000/svg">
<path d="M86 43.1619C86 65.8589 67.2324 84.3238 44 84.3238C20.7676 84.3238 2 65.8589 2 43.1619C2 20.4649 20.7676 2 44 2C67.2324 2 86 20.4649 86 43.1619Z" fill="#6E38A4" stroke="#6E38A4" stroke-width="4"/>
<path d="M28.6472 22.6658C26.407 22.935 24.0651 24.0001 22.2322 25.5863C21.2086 26.4738 20.0082 27.9398 19.2739 29.1996C17.6501 31.9768 16.7658 35.1378 16.53 39.0088C16.1227 45.7143 18.5397 50.4614 24.6975 55.0539C25.8336 55.9014 26.884 56.6172 29.1027 58.0488C32.1574 60.0186 33.3365 60.8547 34.9014 62.1545C38.4331 65.0807 41.8469 69.1006 43.1384 71.8492C43.2938 72.1813 43.4493 72.5421 43.4868 72.6509L43.5564 72.8513L43.6529 72.565C44.3978 70.2917 47.9885 65.8824 52.0133 62.2863C53.7764 60.7115 55.3199 59.5605 58.6586 57.333C62.6405 54.676 64.2536 53.4219 65.9686 51.6353C68.5624 48.9382 69.9183 46.2125 70.4328 42.6622C70.5614 41.7746 70.5614 38.8771 70.4328 37.7203C70.1166 34.9144 69.5432 32.7728 68.5196 30.6197C67.7961 29.1022 66.9064 27.8081 65.781 26.6399C63.8035 24.5899 61.5365 23.3931 58.7658 22.935C58.0531 22.8204 55.9362 22.8376 55.202 22.9636C50.9843 23.7138 47.5115 26.3021 44.9606 30.5911C44.6176 31.1637 44.0013 32.3834 43.7333 33.0305L43.5243 33.5229L42.983 32.372C42.6883 31.7363 42.2488 30.8831 42.0076 30.4708C39.3441 25.9298 35.5498 23.1698 31.2464 22.6601C30.6837 22.5914 29.2206 22.5971 28.6472 22.6658Z" fill="white"/>
</svg>
