<svg width="2889" height="1423" viewBox="0 0 2889 1423" fill="none" xmlns="http://www.w3.org/2000/svg">
<path d="M804 485C871.447 590.34 909.121 634.64 976 672.5C1071.46 703.525 1095.73 722.394 1130 756.5C1192.94 842.857 1228.44 872.719 1292 901C1356.42 928.627 1392.82 941.338 1460 942V1098L804 1028V485Z" fill="#6E38A4"/>
<path d="M2084 485C2016.55 590.34 1978.88 634.64 1912 672.5C1816.54 703.525 1792.27 722.394 1758 756.5C1695.06 842.857 1659.56 872.719 1596 901C1531.57 928.627 1495.18 941.338 1428 942V1080L2084 1028V485Z" fill="#6E38A4"/>
<path d="M804 612.743C871.447 718.082 909.121 762.383 976 800.243C1071.46 831.268 1095.73 850.136 1130 884.243C1192.94 970.599 1228.44 1000.46 1292 1028.74C1356.42 1056.37 1392.82 1069.08 1460 1069.74V1155.74H804V612.743Z" fill="#1A1A1A"/>
<path d="M2084 612.743C2016.55 718.082 1978.88 762.383 1912 800.243C1816.54 831.268 1792.27 850.136 1758 884.243C1695.06 970.599 1659.56 1000.46 1596 1028.74C1531.57 1056.37 1495.18 1069.08 1428 1069.74V1155.74H2084V612.743Z" fill="#1A1A1A"/>
<path fill-rule="evenodd" clip-rule="evenodd" d="M1912 933.429C1978.88 895.569 2016.55 851.269 2084 745.929V1155.93H1609C1664.68 1129.17 1699.48 1097.72 1758 1017.43C1792.27 983.323 1816.54 964.455 1912 933.429Z" fill="#6E38A4"/>
<path fill-rule="evenodd" clip-rule="evenodd" d="M976 933.429C909.121 895.569 871.447 851.269 804 745.929V1155.93H1279C1223.32 1129.17 1188.52 1097.72 1130 1017.43C1095.73 983.323 1071.46 964.455 976 933.429Z" fill="#6E38A4"/>
<path d="M2084 485L2081.76 1156L2888.5 1157.5V0C2687.38 97.2405 2708.5 163 2474.5 251.5C2240.5 340 2208.16 320.539 2084 485Z" fill="#6E38A4"/>
<path d="M2082.24 615L2082 750.5L2871.5 1054.5L2886.74 130C2685.62 227.241 2706.74 293 2472.74 381.5C2238.74 470 2206.39 450.539 2082.24 615Z" fill="#1A1A1A"/>
<path d="M2081.24 750L2080.5 1156H2885.74V265C2684.62 362.241 2705.74 428 2471.74 516.5C2237.74 605 2205.39 585.539 2081.24 750Z" fill="#6E38A4"/>
<path d="M804.5 486L806.74 1157L0.000244141 1158.5V1C201.12 98.2405 180 164 414 252.5C648 341 680.34 321.539 804.5 486Z" fill="#6E38A4"/>
<path d="M806.258 616L806.5 751.5L16.9978 1055.5L1.75781 131C202.878 228.241 181.758 294 415.758 382.5C649.758 471 682.108 451.539 806.258 616Z" fill="#1A1A1A"/>
<path d="M807.259 751L808 1157H2.75879V266C203.879 363.241 182.759 429 416.759 517.5C650.759 606 683.109 586.539 807.259 751Z" fill="#6E38A4"/>
</svg>
