<svg width="176" height="113" viewBox="0 0 176 113" fill="none" xmlns="http://www.w3.org/2000/svg">
<path d="M0.0195312 93.8645H17.6157C22.4821 93.8645 26.4138 89.6697 26.4138 84.4779V18.8315H0.0195312V93.8645Z" fill="#1A1A1A"/>
<path fill-rule="evenodd" clip-rule="evenodd" d="M119.536 0H95.918C93.7185 0 91.6016 0.879978 89.9793 2.46394L62.9528 28.8633C62.9387 28.878 62.9252 28.9 62.9117 28.922C62.8976 28.944 62.8841 28.966 62.8701 28.9807C58.3062 33.5565 58.3889 40.8604 62.2929 45.407C65.7846 49.4842 73.1257 50.5695 77.7171 46.1989C77.7306 46.1843 77.7511 46.1769 77.7716 46.1696C77.7928 46.1623 77.8133 46.1549 77.8268 46.1403L99.7944 24.6687C101.582 22.9382 104.386 23.0555 106.008 24.9621C107.658 26.8687 107.52 29.8313 105.733 31.5913L98.5574 38.6018L138.589 73.2728C139.386 73.9771 140.101 74.7395 140.761 75.5318V18.7729L125.749 2.75727C124.127 0.997313 121.872 0 119.536 0ZM149.586 18.8315V84.5073C149.586 89.699 153.518 93.8938 158.384 93.8938H175.98V18.8315H149.586Z" fill="#6E38A4"/>
<path d="M133.063 82.6294L92.0146 47.0781L83.7662 55.1446C75.6004 63.0939 63.0907 62.331 55.8047 53.854C48.409 45.2302 48.9862 31.8838 57.0147 24.0227L79.505 2.05249H56.4645C54.1278 2.05249 51.9007 3.0498 50.2514 4.80976L35.2119 20.8254V86.5011H40.2432L60.7263 107.738C68.2598 114.279 80.3754 113.769 89.8703 107.797L89.9248 107.738L95.3321 110.544C100.803 113.202 108.208 112.402 111.755 107.738L114.688 103.8C116.048 102.513 117.034 101.747 119.38 101.747C121.726 101.747 128.664 103.338 131.716 99.2902L134.923 96.1762C138.003 92.128 136.83 85.9147 133.063 82.6294Z" fill="#1A1A1A"/>
</svg>
